<svg width="40" height="40" viewBox="0 0 40 40" fill="none" xmlns="http://www.w3.org/2000/svg">
<circle cx="20" cy="20" r="19.25" stroke="black" stroke-width="1.5"/>
<path d="M20 13.7619C22.3333 16.8333 24.6667 20.75 24.6667 22.8571C24.6667 24.1201 24.175 25.3313 23.2998 26.2243C22.4247 27.1173 21.2377 27.619 20 27.619C18.7623 27.619 17.5753 27.1173 16.7002 26.2243C15.825 25.3313 15.3333 24.1201 15.3333 22.8571C15.3333 20.75 17.6667 16.8333 20 13.7619ZM20 10C20 10 13 18.0952 13 22.8571C13 24.7515 13.7375 26.5684 15.0503 27.9079C16.363 29.2475 18.1435 30 20 30C21.8565 30 23.637 29.2475 24.9497 27.9079C26.2625 26.5684 27 24.7515 27 22.8571C27 18.0952 20 10 20 10Z" fill="black"/>
</svg>
